<!-- Generator: Adobe Illustrator 18.1.1, SVG Export Plug-In  -->
<svg version="1.1"
   xmlns="http://www.w3.org/2000/svg" xmlns:xlink="http://www.w3.org/1999/xlink" xmlns:a="http://ns.adobe.com/AdobeSVGViewerExtensions/3.0/"
   x="0px" y="0px" width="333.6px" height="230px" viewBox="0 0 333.6 230" enable-background="new 0 0 333.6 230"
   xml:space="preserve">
<defs>
</defs>
<g>
  <path fill="#FFFFFF" d="M256,230h-36c-1.2,0-2.4-0.8-2.8-1.9l-8-20.7c-14.8,4.4-30.3,6.6-46.2,6.6c-9.7,0-19.3-0.5-28.6-1.5
    l-15.9,16.6c-0.6,0.6-1.3,0.9-2.2,0.9H86.1c-0.9,0-1.8-0.4-2.3-1.1c-0.6-0.7-0.8-1.6-0.6-2.5c2.4-10.5,1-21,0.3-24.9
    c-56.3-20.5-82-60.2-83.1-61.9c-0.3-0.5-0.5-1-0.5-1.6V98.9c0-0.9,0.4-1.7,1.1-2.3c0.7-0.6,1.6-0.8,2.5-0.6c0,0,1.8,0.3,4.6,0.3
    c8.1,0,22.7-2.7,29.7-20.7l0.5-1.4C44.7,58,52.6,37.8,80,19.7V3c0-0.9,0.4-1.7,1-2.2c0.6-0.6,1.5-0.8,2.3-0.8
    c0.9,0.1,22.6,2.5,40.9,12.5C136.8,9.5,149.8,8,163,8c72.2,0,131,46.2,131,103c0,1.2,0,2.4-0.1,3.7c0.1,0.2,0.1,0.5,0.1,0.7
    c0,50.2-21.3,69.8-26.3,73.7l-8.8,38.6C258.6,229,257.4,230,256,230z M222.1,224h31.5l8.5-37.3c0.2-0.8,0.6-1.4,1.3-1.8
    c0.2-0.2,24.3-17,24.7-68.4c-0.1-0.3-0.2-0.7-0.1-1.1c0.1-1.5,0.1-3,0.1-4.4c0-53.5-56.1-97-125-97c-13.1,0-26.1,1.6-38.5,4.7
    c-0.7,0.2-1.5,0.1-2.2-0.3C108.9,10.7,92.8,7.5,86,6.4v14.9c0,1-0.5,2-1.4,2.5C57.7,41.1,50.1,60.7,44,76.4l-0.5,1.4
    c-8.6,22.1-27.6,24.5-35.3,24.5c-0.8,0-1.5,0-2.1-0.1v34.9c3.7,5.4,29.8,41.1,81.2,59.3c1.1,0.4,1.9,1.4,2,2.6
    c0.5,2.3,2.5,13.1,0.6,25h25.3l16-16.7c0.6-0.7,1.6-1,2.5-0.9c9.5,1.1,19.4,1.6,29.4,1.6c16.3,0,32.1-2.4,47.1-7.1
    c1.3-0.4,2.7,0.1,3.4,1.2c0.2,0.2,0.3,0.5,0.4,0.8L222.1,224z"/>
</g>
<g>
  <path fill="#FFFFFF" d="M286.8,96.2l-1-5.9l3-0.5c7.9-1.4,13.1-4.3,16.5-9.4c-3.2-1-6.3-2.5-9-4.6c-5.3-4-7.2-11.8-7.3-17.7
    c-0.1-4.9,2.5-9.1,6.7-10.9c4.4-1.9,9.6-0.7,13.3,3c6.3,6.3,7.5,17.6,5.1,25.4c1.5,0,3-0.3,4.4-0.7c4.1-1.2,7-3.9,8.5-8.1l1-2.8
    l5.6,2.1l-1,2.8c-2.2,5.9-6.5,10-12.4,11.8c-2.7,0.8-5.7,1.1-8.6,0.8c-4.3,7.8-11.3,12.3-21.8,14.1L286.8,96.2z M300,52.3
    c-0.8,0-1.5,0.2-2.1,0.4c-2,0.8-3.1,2.7-3.1,5.2c0.1,4.3,1.4,10.3,4.9,13c2.4,1.8,5.2,3.1,8.1,3.9c0,0,0,0,0-0.1
    c2.2-6,1.4-15.6-3.3-20.4C303.1,52.9,301.4,52.3,300,52.3z"/>
</g>
<g>
  <circle fill="#08C5FF" cx="164.1" cy="115" r="50.2"/>
  <path fill="#FFFFFF" d="M164.1,167.5c-29,0-52.5-23.6-52.5-52.5c0-29,23.6-52.5,52.5-52.5c29,0,52.5,23.6,52.5,52.5
    C216.6,144,193.1,167.5,164.1,167.5z M164.1,67.2c-26.4,0-47.8,21.4-47.8,47.8s21.4,47.8,47.8,47.8s47.8-21.4,47.8-47.8
    S190.5,67.2,164.1,67.2z"/>
</g>
</svg>
