<!-- Generator: Adobe Illustrator 18.1.1, SVG Export Plug-In  -->
<svg version="1.1"
   xmlns="http://www.w3.org/2000/svg" xmlns:xlink="http://www.w3.org/1999/xlink" xmlns:a="http://ns.adobe.com/AdobeSVGViewerExtensions/3.0/"
   x="0px" y="0px" width="136.3px" height="79.3px" viewBox="0 0 136.3 79.3" enable-background="new 0 0 136.3 79.3"
   xml:space="preserve">
<defs>
</defs>
<path fill="#54B157" d="M124.3,79.3H12c-6.6,0-12-5.4-12-12V12C0,5.4,5.4,0,12,0h112.3c6.6,0,12,5.4,12,12v55.3
  C136.3,73.9,130.9,79.3,124.3,79.3z"/>
<g id="fork_1_">
  <g>
    <path fill="#FFFFFF" d="M31.1,28.2h8.1c3.3,0,6.5,1.3,8.8,3.6l23.4,23.5c3.7,3.7,8.6,5.8,13.8,6v8.4l12.5-12.5L85.1,44.8V53
      c-3-0.2-5.8-1.4-7.9-3.6L53.8,25.9c-3.9-3.9-9.1-6.1-14.7-6.1h-8.1V28.2z"/>
    <path fill="#FFFFFF" d="M85.1,20c-5.2,0.2-10.1,2.3-13.8,6l-4.6,4.6l5.9,5.9l4.6-4.7c2.1-2.1,4.9-3.3,7.9-3.6v8.2L97.6,24
      L85.1,11.5V20z"/>
  </g>
</g>
</svg>
