<!-- Generator: Adobe Illustrator 18.1.1, SVG Export Plug-In  -->
<svg version="1.1"
   xmlns="http://www.w3.org/2000/svg" xmlns:xlink="http://www.w3.org/1999/xlink" xmlns:a="http://ns.adobe.com/AdobeSVGViewerExtensions/3.0/"
   x="0px" y="0px" width="294px" height="229.5px" viewBox="0 0 294 229.5" enable-background="new 0 0 294 229.5"
   xml:space="preserve">
<defs>
</defs>
<g>
  <g>
    <rect x="147" y="178.5" fill="#08C5FF" width="16" height="47.9"/>
    <path fill="#545454" d="M166,229.4h-22v-53.9h22V229.4z M150,223.4h10v-41.9h-10V223.4z"/>
  </g>
  <g>
    <rect x="115" y="194.5" fill="#08C5FF" width="16" height="31.9"/>
    <path fill="#545454" d="M134,229.4h-22v-37.9h22V229.4z M118,223.4h10v-25.9h-10V223.4z"/>
  </g>
  <g>
    <rect x="83" y="210.4" fill="#08C5FF" width="16" height="15.9"/>
    <path fill="#545454" d="M102,229.4H80v-21.9h22V229.4z M86,223.4h10v-9.9H86V223.4z"/>
  </g>
  <g>
    <rect x="179" y="154.1" fill="#08C5FF" width="16" height="72.2"/>
    <path fill="#545454" d="M198,229.4h-22v-78.2h22V229.4z M182,223.4h10v-66.2h-10V223.4z"/>
  </g>
  <g>
    <rect x="211" y="130.4" fill="#08C5FF" width="16" height="96"/>
    <path fill="#545454" d="M230,229.4h-22v-102h22V229.4z M214,223.4h10v-90h-10V223.4z"/>
  </g>
  <g>
    <rect x="243" y="114.4" fill="#08C5FF" width="16" height="112"/>
    <path fill="#545454" d="M262,229.4h-22v-118h22V229.4z M246,223.4h10v-106h-10V223.4z"/>
  </g>
  <g>
    <rect x="275" y="61.5" fill="#08C5FF" width="16" height="164.9"/>
    <path fill="#545454" d="M294,229.4h-22V58.5h22V229.4z M278,223.4h10V64.5h-10V223.4z"/>
  </g>
</g>
<g>
  <g>
    <polygon fill="#545454" points="61.3,100.4 56.7,96.5 98.1,49 177.9,77.6 217.2,24.8 281.3,9.1 282.7,14.9 220.8,30.1 180.1,84.7
      99.9,56     "/>
  </g>
  <g>
    <circle fill="#08C5FF" cx="59" cy="98.5" r="9"/>
    <path fill="#545454" d="M59,110.5c-6.6,0-12-5.4-12-12s5.4-12,12-12c6.6,0,12,5.4,12,12S65.6,110.5,59,110.5z M59,92.5
      c-3.3,0-6,2.7-6,6s2.7,6,6,6c3.3,0,6-2.7,6-6S62.3,92.5,59,92.5z"/>
  </g>
  <g>
    <circle fill="#08C5FF" cx="99" cy="52.5" r="9"/>
    <path fill="#545454" d="M99,64.5c-6.6,0-12-5.4-12-12s5.4-12,12-12c6.6,0,12,5.4,12,12S105.6,64.5,99,64.5z M99,46.5
      c-3.3,0-6,2.7-6,6c0,3.3,2.7,6,6,6c3.3,0,6-2.7,6-6C105,49.2,102.3,46.5,99,46.5z"/>
  </g>
  <g>
    <circle fill="#08C5FF" cx="179" cy="81.1" r="9"/>
    <path fill="#545454" d="M179,93.1c-6.6,0-12-5.4-12-12c0-6.6,5.4-12,12-12c6.6,0,12,5.4,12,12C191,87.8,185.6,93.1,179,93.1z
       M179,75.1c-3.3,0-6,2.7-6,6c0,3.3,2.7,6,6,6c3.3,0,6-2.7,6-6C185,77.8,182.3,75.1,179,75.1z"/>
  </g>
  <g>
    <circle fill="#08C5FF" cx="219" cy="27.5" r="9"/>
    <path fill="#545454" d="M219,39.5c-6.6,0-12-5.4-12-12s5.4-12,12-12c6.6,0,12,5.4,12,12S225.6,39.5,219,39.5z M219,21.5
      c-3.3,0-6,2.7-6,6s2.7,6,6,6c3.3,0,6-2.7,6-6S222.3,21.5,219,21.5z"/>
  </g>
  <g>
    <circle fill="#08C5FF" cx="282" cy="12" r="9"/>
    <path fill="#545454" d="M282,24c-6.6,0-12-5.4-12-12s5.4-12,12-12c6.6,0,12,5.4,12,12S288.6,24,282,24z M282,6c-3.3,0-6,2.7-6,6
      s2.7,6,6,6c3.3,0,6-2.7,6-6S285.3,6,282,6z"/>
  </g>
</g>
<g>
  <path fill="#545454" d="M22,229.4H0v-22h22V229.4z M6,223.4h10v-10H6V223.4z"/>
</g>
<g>
  <path fill="#545454" d="M22,197.5H0v-22h22V197.5z M6,191.5h10v-10H6V191.5z"/>
</g>
<g>
  <path fill="#545454" d="M22,165.5H0v-22h22V165.5z M6,159.5h10v-10H6V159.5z"/>
</g>
<g>
  <rect x="35" y="143.5" fill="#545454" width="48" height="6"/>
</g>
<g>
  <rect x="35" y="159.5" fill="#545454" width="48" height="6"/>
</g>
<g>
  <rect x="35" y="175.5" fill="#545454" width="48" height="6"/>
</g>
<g>
  <rect x="35" y="191.5" fill="#545454" width="28.5" height="6"/>
</g>
<g>
  <rect x="35" y="207.5" fill="#545454" width="28.5" height="6"/>
</g>
<g>
  <rect x="35" y="223.5" fill="#545454" width="28.5" height="6"/>
</g>
<g>
  <g>
    <g>
      <path fill="#EF5E5E" d="M144.3,116.5c19.3-33.1,10.8-76.1-20.9-99.1C89.7-7.1,42.5,0.4,18.1,34.1c-24.5,33.7-17,80.9,16.7,105.4
        c31.7,23,75.2,17.8,100.7-10.8l24.7,18l8.9-12.2L144.3,116.5z M43.7,127.3c-27-19.6-33-57.3-13.4-84.3c19.6-27,57.3-33,84.3-13.4
        c27,19.6,33,57.3,13.4,84.3C108.4,140.9,70.6,146.9,43.7,127.3z"/>
      <path fill="#545454" d="M79.1,156.9c-16.6,0-32.5-5.2-46-15c-17-12.3-28.1-30.5-31.4-51.2c-3.3-20.7,1.7-41.4,14-58.4
        C30.3,12.1,54.1,0,79.2,0c16.6,0,32.5,5.2,46,15C141.1,26.5,152,43.4,156,62.5c3.8,18.1,1,36.9-7.7,53.1l25,18.2l-12.4,17.1
        l-25-18.1C121.1,148.1,100.6,156.9,79.1,156.9z M79.2,6C56,6,34.1,17.2,20.5,35.9C9.1,51.6,4.5,70.7,7.6,89.8
        c3,19.1,13.3,35.9,29,47.3c12.5,9,27.2,13.8,42.5,13.8c20.7,0,40.5-8.8,54.2-24.2l1.8-2l24.5,17.8l5.3-7.4l-24.5-17.8l1.4-2.3
        c18.9-32.3,10.2-73.2-20-95.1C109.2,10.8,94.5,6,79.2,6z M79.1,141.8c-13.4,0-26.3-4.2-37.2-12.1c-13.7-9.9-22.7-24.6-25.4-41.3
        c-2.7-16.7,1.4-33.5,11.3-47.2c11.9-16.4,31.1-26.1,51.3-26.1c13.4,0,26.3,4.2,37.2,12.1c13.7,9.9,22.7,24.6,25.4,41.3
        c2.7,16.7-1.4,33.5-11.3,47.2C118.5,132.1,99.3,141.8,79.1,141.8z M79.2,21.1c-18.3,0-35.7,8.8-46.5,23.7
        c-9,12.4-12.6,27.6-10.2,42.7c2.4,15.1,10.6,28.4,23,37.4c9.9,7.2,21.5,11,33.7,11c18.3,0,35.7-8.8,46.5-23.7
        c9-12.4,12.6-27.6,10.2-42.7c-2.4-15.1-10.6-28.4-23-37.4C103,24.9,91.3,21.1,79.2,21.1z"/>
    </g>
  </g>
  <g>

      <rect x="156" y="152" transform="matrix(0.8092 0.5875 -0.5875 0.8092 136.5122 -86.2979)" fill="#FFFFFF" width="90.2" height="30.2"/>
    <path fill="#545454" d="M229.4,210l-77.9-56.5l21.3-29.3l77.9,56.5L229.4,210z M159.9,152.1l68.2,49.5l14.2-19.6l-68.2-49.5
      L159.9,152.1z"/>
  </g>
</g>
</svg>
